<?xml version="1.0" encoding="UTF-8" standalone="no"?>
<svg width="44px" height="44px" viewBox="0 0 44 44" version="1.1" xmlns="http://www.w3.org/2000/svg" xmlns:xlink="http://www.w3.org/1999/xlink" xmlns:sketch="http://www.bohemiancoding.com/sketch/ns">
    <!-- Generator: Sketch 3.2.1 (9977) - http://www.bohemiancoding.com/sketch -->
    <title>Artboard 1</title>
    <desc>Created with Sketch.</desc>
    <defs></defs>
    <g id="Page-1" stroke="none" stroke-width="1" fill="none" fill-rule="evenodd" sketch:type="MSPage">
        <g id="Artboard-1" sketch:type="MSArtboardGroup">
            <g id="noun_53556_cc" sketch:type="MSLayerGroup">
                <path d="M22,43.102125 C33.6357083,43.102125 43.102125,33.6357083 43.102125,22 C43.102125,10.3642917 33.6357083,0.897875 22,0.897875 C10.3642917,0.897875 0.897875,10.3642917 0.897875,22 C0.897875,33.6357083 10.3642917,43.102125 22,43.102125 L22,43.102125 Z M13.6010417,17.6417083 C13.7765833,17.4661667 14.0602917,17.4661667 14.2358333,17.6417083 L22,25.405875 L29.7641667,17.6421667 C29.93925,17.466625 30.2234167,17.466625 30.3989583,17.6421667 C30.5745,17.8177083 30.5745,18.1014167 30.3989583,18.2769583 L22.3171667,26.3582917 C22.229625,26.4458333 22.1145833,26.4898333 22,26.4898333 C21.8854167,26.4898333 21.770375,26.4458333 21.6828333,26.3582917 L13.6010417,18.2765 C13.4255,18.1009583 13.4255,17.81725 13.6010417,17.6417083 L13.6010417,17.6417083 Z" id="Shape" sketch:type="MSShapeGroup"></path>
                <path d="M22,41 C32.4765208,41 41,32.4765208 41,22 C41,11.5234792 32.4765208,3 22,3 C11.5234792,3 3,11.5234792 3,22 C3,32.4765208 11.5234792,41 22,41 L22,41 Z M22,0.897875 C33.6357083,0.897875 43.102125,10.3642917 43.102125,22 C43.102125,33.6357083 33.6357083,43.102125 22,43.102125 C10.3642917,43.102125 0.897875,33.6357083 0.897875,22 C0.897875,10.3642917 10.3642917,0.897875 22,0.897875 L22,0.897875 Z" id="Shape" fill="#FFFFFF" sketch:type="MSShapeGroup"></path>
                <path d="M22,26.9898333 C22.2493251,26.9898333 22.4908117,26.8917534 22.6707201,26.7118451 L30.7525117,18.6300534 C31.1233155,18.2592496 31.1233155,17.6589588 30.7525117,17.2881549 C30.3816308,16.9172741 29.7805252,16.9172741 29.4101514,17.2886174 L21.6464466,25.0523216 L22.3535534,25.0523216 L14.5893867,17.2881549 C14.2185829,16.9173511 13.6182921,16.9173511 13.2474883,17.2881549 C12.8766845,17.6589588 12.8766845,18.2592496 13.2474883,18.6300534 L21.3292799,26.7118451 C21.5091883,26.8917534 21.7506749,26.9898333 22,26.9898333 Z M13.9545951,17.9229466 C13.9743155,17.9426671 13.9743155,17.9755412 13.9545951,17.9952617 C13.9348746,18.0149822 13.9020004,18.0149822 13.8822799,17.9952617 L21.6464466,25.7594284 L22,26.1129818 L22.3535534,25.7594284 L30.1177201,17.9952617 C30.0979748,18.0150593 30.0652025,18.0150593 30.0454049,17.9952617 C30.0256845,17.9755412 30.0256845,17.9426671 30.0454049,17.9229466 L21.9636133,26.0047383 C22.013451,25.9898333 22.0269743,25.9953258 22.0363867,26.0047383 L13.9545951,17.9229466 Z" id="Shape" fill="#FFFFFF" sketch:type="MSShapeGroup"></path>
            </g>
        </g>
    </g>
</svg>